<svg viewBox="0 0 128 106" fill="none" xmlns="http://www.w3.org/2000/svg">
<path d="M0 50.9401L6 57V48L0 48.9017V50.9401Z" fill="currentColor"/>
<path d="M16 43L10 43.875V57.1167L16 63V43Z" fill="currentColor"/>
<path d="M27 37L21 37.8883V63.053L27 69V37Z" fill="currentColor"/>
<path d="M27 42L23 64L27 62.0164V42Z" fill="currentColor"/>
<path d="M37 14L31 14.8888V92L37 88.775V14Z" fill="currentColor"/>
<path d="M48 12L43.5987 21.0641L42 21.3012V94L48 90.7957V12Z" fill="currentColor"/>
<path d="M58 3L52 15.5105V102L58 98.7549V3Z" fill="currentColor"/>
<path d="M68 106V10.515L62.951 0L62 1.98034V103.787L62.951 103.273L68 106Z" fill="currentColor"/>
<path d="M79 19.4893L73 7V95.7604L79 99V19.4893Z" fill="currentColor"/>
<path d="M83 87.766L90 91V15.8957L83 15V87.766Z" fill="currentColor"/>
<path d="M100 13.8968L94 13V89.7619L100 93V73.0856L96.1367 49.9536L100 46.0892V13.8968Z" fill="currentColor"/>
<path d="M110 39.8866L104 39V66L110 60.0415V39.8866Z" fill="currentColor"/>
<path d="M121 45.9102L114 45V61L121 54.8832V45.9102Z" fill="currentColor"/>
<path d="M125 51V55L128 51.5197L125 51Z" fill="currentColor"/>
</svg>
